<svg xmlns="http://www.w3.org/2000/svg" version="1.1" xmlns:xlink="http://www.w3.org/1999/xlink" xmlns:svgjs="http://svgjs.dev/svgjs" width="100%" height="100%" viewBox="0 0 1000 600"><rect width="1000" height="600" x="0" y="0" fill="#00b4d8"/><g><circle r="166.66666666666666" cx="293.87282816569007" cy="316.0950665040041" fill="#03045e" transform="matrix(0.9826566852802059,0,0,0.9826566852802059,0,-10.612936925011923)"/><path d="M216.95469548241078 265.9721341625175L216.95469548241078 265.9721341625175Q209.6952038629988 264.11299606486324 201.9045299299713 264.11299606486324L201.9045299299713 264.11299606486324Q194.0253256113412 264.11299606486324 189.2446847888016 267.9493127743086L189.2446847888016 267.9493127743086Q184.37551358065943 271.9036699978907 184.37551358065943 279.0451211031659L184.37551358065943 279.0451211031659Q184.37551358065943 286.2160823369753 188.00525939036544 290.1999496890917Q191.63500520007142 294.21332716974223 202.22914134384743 297.22336028023005L202.22914134384743 297.22336028023005L221.20415399133486 302.7122441875904Q236.4608904435137 307.1682735962538 245.49098977497738 316.6705349842646Q254.52108910644108 326.1432862437413 254.52108910644108 344.41005580640797L254.52108910644108 344.41005580640797Q254.52108910644108 358.84050865962934 247.35012787263167 369.31660428926864Q240.17916663882227 379.79269991890783 227.90295316859712 385.45864459747327Q215.5972295698378 391.0950791475045 200.13392221791958 391.0950791475045L200.13392221791958 391.0950791475045Q187.38554669114734 391.0950791475045 173.89941795102018 387.8489650087431Q160.41328921089305 384.5733407414474 151.47172026503196 378.6418049060742L151.47172026503196 378.6418049060742L151.47172026503196 373.6841033123294Q151.47172026503196 371.29378290105967 152.15045322131843 366.42461169291744Q152.82918617760492 361.52593035624113 154.1276318331095 356.18459709155184Q155.42607748861408 350.84326382686254 157.1966852006658 347.12498763155384L157.1966852006658 347.12498763155384L177.4111232465894 347.12498763155384Q180.83429815655603 353.85329693735036 181.4835209843083 364.74253436646836L181.4835209843083 364.74253436646836Q188.62497208958354 367.9591383766956 198.8059664338808 367.9591383766956L198.8059664338808 367.9591383766956Q208.66234936430197 367.9591383766956 215.0365371276881 363.29653806829276Q221.4107248910742 358.63393775988993 221.4107248910742 349.9284498423025L221.4107248910742 349.9284498423025Q221.4107248910742 345.7675217189809 220.7910121918561 343.17063040797177L220.7910121918561 343.17063040797177Q220.171299492638 340.48520871136 216.836654968274 337.47517560087215Q213.53152057244412 334.4651424903842 207.39341383733156 332.4879638785932L207.39341383733156 332.4879638785932L185.52640859349304 326.1432862437413Q152.12094309278424 316.72955524133306 152.12094309278424 283.6191910259662L152.12094309278424 283.6191910259662Q152.12094309278424 270.75277498505716 158.49513085617036 261.2210034685121Q164.8693186195565 251.65972182343293 176.28973836229 246.37740881581203Q187.68064797648927 241.09509580819108 202.84885404306553 241.09509580819108L202.84885404306553 241.09509580819108Q225.57165301439574 241.09509580819108 247.14355697289233 251.36462053809097L247.14355697289233 251.36462053809097L247.14355697289233 256.2337917462331Q247.14355697289233 258.62411215750296 246.4648240166058 263.55230362271357Q245.78609106031934 268.48049508792406 244.48764540481474 273.762808095545Q243.18919974931015 279.0451211031659 241.33006165165585 282.7929074270087L241.33006165165585 282.7929074270087L221.20415399133486 282.7929074270087Q217.57440818162885 277.5991248049904 216.95469548241078 265.9721341625175ZM265.9119987206403 260.48325025515726L265.9119987206403 260.48325025515726L268.0072178465682 242.8361933917086L317.79080468375525 242.8361933917086L319.85651368114895 260.48325025515726Q316.4333387711823 264.526137864342 308.2590331672103 267.65421148896667L308.2590331672103 267.65421148896667L308.2590331672103 364.74253436646836Q316.4333387711823 368.07717889083244 319.85651368114895 371.7954550861409L319.85651368114895 371.7954550861409L317.79080468375525 389.44251194958963L268.0072178465682 389.44251194958963L265.9119987206403 371.7954550861409Q268.71546093138886 368.165709276435 277.6275197487158 364.74253436646836L277.6275197487158 364.74253436646836L277.6275197487158 267.65421148896667Q268.83350144552566 264.526137864342 265.9119987206403 260.48325025515726ZM398.707577124518 265.9721341625175L398.707577124518 265.9721341625175Q391.44808550510606 264.11299606486324 383.65741157207856 264.11299606486324L383.65741157207856 264.11299606486324Q375.7782072534485 264.11299606486324 371.0270765594431 267.9493127743086L371.0270765594431 267.9493127743086Q366.12839522276676 271.9036699978907 366.12839522276676 279.0451211031659L366.12839522276676 279.0451211031659Q366.12839522276676 286.2160823369753 369.75814103247274 290.1999496890917Q373.3878868421787 294.21332716974223 383.9820229859547 297.22336028023005L383.9820229859547 297.22336028023005L402.95703563344216 302.7122441875904Q418.21377208562103 307.1682735962538 427.2438714170846 316.6705349842646Q436.2739707485483 326.1432862437413 436.2739707485483 344.41005580640797L436.2739707485483 344.41005580640797Q436.2739707485483 358.84050865962934 429.103009514739 369.31660428926864Q421.9615584094638 379.79269991890783 409.6558348107045 385.45864459747327Q397.37962134047933 391.0950791475045 381.91631398856106 391.0950791475045L381.91631398856106 391.0950791475045Q369.13842833325464 391.0950791475045 355.6522995931275 387.8489650087431Q342.1661708530004 384.5733407414474 333.2541120356735 378.6418049060742L333.2541120356735 378.6418049060742L333.2541120356735 373.6841033123294Q333.2541120356735 371.29378290105967 333.93284499196 366.42461169291744Q334.61157794824646 361.52593035624113 335.910023603751 356.18459709155184Q337.1789591307214 350.84326382686254 338.94956684277304 347.12498763155384L338.94956684277304 347.12498763155384L359.1935150172309 347.12498763155384Q362.61668992719757 353.85329693735036 363.2364026264156 364.74253436646836L363.2364026264156 364.74253436646836Q370.37785373169083 367.9591383766956 380.5588480759882 367.9591383766956L380.5588480759882 367.9591383766956Q390.4152310064093 367.9591383766956 396.78941876979536 363.29653806829276Q403.16360653318156 358.63393775988993 403.16360653318156 349.9284498423025L403.16360653318156 349.9284498423025Q403.16360653318156 345.7675217189809 402.54389383396347 343.17063040797177L402.54389383396347 343.17063040797177Q401.92418113474537 340.48520871136 398.6190467389155 337.47517560087215Q395.28440221455145 334.4651424903842 389.1758056079731 332.4879638785932L389.1758056079731 332.4879638785932L367.27929023560034 326.1432862437413Q333.8738247348915 316.72955524133306 333.8738247348915 283.6191910259662L333.8738247348915 283.6191910259662Q333.8738247348915 270.75277498505716 340.2480124982777 261.2210034685121Q346.6222002616638 251.65972182343293 358.0426200043973 246.37740881581203Q369.4630397471308 241.09509580819108 384.6017356851728 241.09509580819108L384.6017356851728 241.09509580819108Q407.32453465650303 241.09509580819108 428.8964386149996 251.36462053809097L428.8964386149996 251.36462053809097L428.8964386149996 256.2337917462331Q428.8964386149996 258.62411215750296 428.21770565871316 263.55230362271357Q427.56848283096076 268.48049508792406 426.2700371754562 273.762808095545Q424.97159151995174 279.0451211031659 423.08294329376315 282.7929074270087L423.08294329376315 282.7929074270087L402.95703563344216 282.7929074270087Q399.3272898237362 277.5991248049904 398.707577124518 265.9721341625175Z " fill="#00b4d8" transform="matrix(0.9826566852802059,0,0,0.9826566852802059,0,-10.612936925011923)"/><path d="M557.5817534079176 364.6462886611308L557.5817534079176 364.6462886611308L596.9699313990807 246.90926747336331L625.1287735519527 246.90926747336331L665.9989958669511 365.2448065611412Q674.6347541385303 368.35139947071923 678.0263555719227 372.4555222136479L678.0263555719227 372.4555222136479L676.0312959052212 389.4990319377547L628.0358604948605 389.4990319377547L625.9267974186332 372.4555222136479Q628.4348724282008 369.2634267469256 635.8450940473776 366.3563398040177L635.8450940473776 366.3563398040177L630.230426128232 349.1133241132409L589.2462004037079 349.1133241132409L584.0590452702841 365.6438184944815Q591.2697609227907 368.55090543738936 594.775365765709 372.4555222136479L594.775365765709 372.4555222136479L592.6663026894818 389.4990319377547L545.8679030791418 389.4990319377547L543.8728434124405 372.4555222136479Q547.6634567791732 367.7528815707087 557.5817534079176 364.6462886611308ZM611.1918567374239 279.0867298120197L611.1918567374239 279.0867298120197L610.9923507707538 275.58112496910144L608.0852638278459 275.58112496910144Q608.0852638278459 288.0074966074134 602.9836112515665 304.7374969553241L602.9836112515665 304.7374969553241L594.9748717323791 330.1887581319585L624.330749685272 330.1887581319585L616.5215161327549 305.1365088886645Q611.7903746374343 290.715077583651 611.1918567374239 279.0867298120197ZM676.3163044290358 259.6491484878712L676.3163044290358 259.6491484878712L678.3398649481187 243.80267456378533Q689.96821271975 241.09509358754764 699.7725059389686 241.09509358754764L699.7725059389686 241.09509358754764Q709.6053000105686 241.09509358754764 716.3030003202093 241.69361148755806L716.3030003202093 241.69361148755806L716.3030003202093 292.995145774167Q720.6066290298081 290.0025562741148 727.8458455346963 287.6369855264545Q735.056561187203 285.2999156311756 741.5547555301735 285.2999156311756L741.5547555301735 285.2999156311756Q756.4892021780529 285.2999156311756 765.3529672686836 290.25906394554784Q774.2167323593144 295.21821225992005 778.1213491355729 306.33354468868527Q782.0259659118316 317.4488771174506 782.0259659118316 335.8889286082483L782.0259659118316 335.8889286082483Q782.0259659118316 351.33639059899394 777.8363406117585 362.50872473252207Q773.618214459304 373.6810588660502 766.4074988067973 379.6662378661546L766.4074988067973 379.6662378661546Q752.8695939256088 391.09507967111585 734.4580432871925 391.09507967111585L734.4580432871925 391.09507967111585Q720.407123063138 391.09507967111585 706.897719034331 384.197873394805L706.897719034331 384.197873394805Q702.9931022580724 389.4990319377547 697.8629488294115 389.4990319377547L697.8629488294115 389.4990319377547L687.6596436768526 389.4990319377547L687.6596436768526 266.54635476418196Q680.3349246148201 264.15228316414016 676.3163044290358 259.6491484878712ZM732.7479921443055 370.1469531707505L732.7479921443055 370.1469531707505Q752.4705819922685 370.1469531707505 752.4705819922685 337.199967817795L752.4705819922685 337.199967817795Q752.4705819922685 319.67194360320366 749.0789805588761 313.45875778404763L749.0789805588761 313.45875778404763Q745.5733757159578 307.2455719648917 737.2511268205747 307.2455719648917L737.2511268205747 307.2455719648917Q724.5112458060667 307.2455719648917 716.3030003202093 313.9432722745323L716.3030003202093 313.9432722745323L716.3030003202093 366.75535173735796Q725.0242611489327 370.1469531707505 732.7479921443055 370.1469531707505ZM796.8749100025667 302.1154185362308L796.8749100025667 302.1154185362308Q796.8749100025667 300.5193708028696 796.9319117073296 298.86632136474554Q796.960412559711 297.2132719266215 797.0744159692368 295.5032207837345L797.0744159692368 295.5032207837345Q816.1984879171894 285.2999156311756 838.1441442509054 285.2999156311756L838.1441442509054 285.2999156311756Q860.0898005846215 285.2999156311756 869.6090852800255 293.6221645265589Q879.1283699754297 301.91591256956065 879.1283699754297 321.153987927039L879.1283699754297 321.153987927039L879.1283699754297 364.84579462780096Q886.253583070792 366.3563398040177 890.443208370865 368.35139947071923L890.443208370865 368.35139947071923L890.443208370865 386.19293306150655Q880.2399032183062 391.09507967111585 860.4888125179618 391.09507967111585L860.4888125179618 391.09507967111585Q858.3797494417345 385.59441516149604 856.9832076750434 378.18419354231924L856.9832076750434 378.18419354231924Q848.1764442891756 391.09507967111585 825.0337521554386 391.09507967111585L825.0337521554386 391.09507967111585Q815.9134793933749 391.09507967111585 808.3322526599093 387.50397227105316Q800.7795267788252 383.8843640186092 796.2763921025562 377.21516456135Q791.7447565739058 370.5744659564723 791.7447565739058 361.3401897848827L791.7447565739058 361.3401897848827Q791.7447565739058 347.602778937024 800.8650293359697 339.73654367974405Q809.9853020980333 331.89880927484546 828.0263416554909 331.89880927484546L828.0263416554909 331.89880927484546L850.485013332073 331.89880927484546L850.485013332073 321.9520117937195Q850.485013332073 305.934532755345 833.4415036079663 305.934532755345L833.4415036079663 305.934532755345Q826.82930585547 305.934532755345 822.9246890792115 307.2455719648917L822.9246890792115 307.2455719648917Q822.4116737363454 315.96683279361525 820.5021166267882 320.5554700270286L820.5021166267882 320.5554700270286L800.380514845485 320.5554700270286Q796.8749100025667 313.2592518173775 796.8749100025667 302.1154185362308ZM833.8405155413066 370.1469531707505L833.8405155413066 370.1469531707505Q844.3573300700614 370.1469531707505 850.485013332073 364.0477707611203L850.485013332073 364.0477707611203L850.485013332073 347.20376700368377L836.0350811746782 347.20376700368377Q821.3286413458503 347.20376700368377 821.3286413458503 358.5471062515006L821.3286413458503 358.5471062515006Q821.3286413458503 363.64875882778006 824.4637351078097 366.8978559992653Q827.6273297221505 370.1469531707505 833.8405155413066 370.1469531707505Z " fill="#03045e" transform="matrix(0.9826566852802059,0,0,0.9826566852802059,0,-10.612936925011923)"/></g></svg>